<?xml version="1.0" encoding="UTF-8" standalone="no"?>
<svg width="150" height="150" viewBox="0 0 150 150" xmlns="http://www.w3.org/2000/svg">
  <circle cx="75" cy="75" r="70" fill="#ffffff" stroke="#15803d" stroke-width="2"/>
  <text x="75" y="85" font-family="Arial, sans-serif" font-size="24" font-weight="bold" text-anchor="middle" fill="#15803d">AttendEase</text>
  <path d="M75,30 C45,30 25,50 25,75 C25,100 45,120 75,120 C105,120 125,100 125,75 C125,50 105,30 75,30 Z M75,110 C50,110 35,95 35,75 C35,55 50,40 75,40 C100,40 115,55 115,75 C115,95 100,110 75,110 Z" fill="#15803d" fill-opacity="0.2"/>
  <path d="M60,60 L90,60 L90,90 L60,90 Z" fill="none" stroke="#15803d" stroke-width="3"/>
  <path d="M70,50 L70,70 L90,70" fill="none" stroke="#15803d" stroke-width="3" stroke-linecap="round"/>
</svg>
